<?xml version="1.0" encoding="UTF-8" standalone="no"?>
<svg
   version="1.1"
   viewBox="0 0 1068 854.4"
   width="100"
   height="80"
   id="svg4"
   sodipodi:docname="ec-logo.svg"
   inkscape:export-filename="ec-logo.svg"
   inkscape:export-xdpi="96"
   inkscape:export-ydpi="96"
   inkscape:version="1.3.2 (091e20e, 2023-11-25)"
   xmlns:inkscape="http://www.inkscape.org/namespaces/inkscape"
   xmlns:sodipodi="http://sodipodi.sourceforge.net/DTD/sodipodi-0.dtd"
   xmlns="http://www.w3.org/2000/svg"
   xmlns:svg="http://www.w3.org/2000/svg">
  <defs
     id="defs4" />
  <sodipodi:namedview
     id="namedview4"
     pagecolor="#505050"
     bordercolor="#eeeeee"
     borderopacity="1"
     inkscape:showpageshadow="0"
     inkscape:pageopacity="0"
     inkscape:pagecheckerboard="0"
     inkscape:deskcolor="#505050"
     inkscape:zoom="3.2169256"
     inkscape:cx="113.15151"
     inkscape:cy="21.44905"
     inkscape:window-width="1472"
     inkscape:window-height="919"
     inkscape:window-x="0"
     inkscape:window-y="37"
     inkscape:window-maximized="0"
     inkscape:current-layer="svg4" />
  <path
     d="m 755.43819,90.34357 h 56.0546 l 13.74924,1.05763 16.92215,2.11527 33.84429,6.34581 32.78665,8.46107 20.09505,7.40344 23.26794,9.5187 33.84429,16.92215 16.9222,10.57634 16.9221,11.63397 10.5764,8.46107 12.6916,9.51871 12.6916,11.63397 9.5187,7.40344 -1.0576,4.23054 -13.7493,13.74924 -8.4611,7.40344 -5.2881,4.23053 -5.2882,5.28817 -13.7492,11.63398 -9.5187,9.5187 -8.46114,7.40344 -4.23056,4.23054 h -2.1152 l -1.0577,3.1729 -7.4034,5.28817 h -2.11534 v 2.11527 l -8.461,7.40343 -6.3458,7.40344 -5.28821,-1.05763 -2.11526,-4.23054 -4.23054,-2.11527 v -2.11526 l -4.23054,-2.11527 -10.57634,-9.51871 -12.6916,-9.5187 -11.63398,-8.46108 -11.63397,-6.3458 -10.57634,-6.3458 -30.67139,-12.69161 -29.61375,-7.40344 -16.92214,-2.11527 -2.11527,-1.05763 h -37.01719 l -2.11527,1.05763 -16.92214,2.11527 -19.03742,4.23054 -15.86451,5.28817 -17.97977,8.46107 -19.03742,10.57634 -12.6916,8.46107 -13.74925,10.57634 -10.57634,9.51871 -14.80687,14.80687 -13.74924,17.97978 -10.57634,16.92214 -8.46108,16.92215 -9.5187,28.55612 -5.28817,25.38321 -1.05764,10.57634 -1.05763,2.11527 v 30.67139 l 2.11527,11.63397 3.1729,16.92214 6.3458,24.32559 8.46108,22.21031 6.3458,11.63397 8.46107,13.74925 6.34581,9.5187 11.63397,13.74924 8.46107,10.57634 10.57634,9.51871 12.69161,9.51871 13.74924,9.5187 10.57634,6.34581 21.15268,9.5187 28.55612,9.51871 12.69161,3.1729 12.69161,2.11527 2.11526,1.05763 h 50.76644 l 13.74924,-3.1729 24.32558,-5.28817 16.92214,-6.3458 38.07483,-19.03742 17.97978,-12.6916 13.74924,-10.57634 19.03738,-19.03742 4.2306,1.05764 7.4034,7.40344 13.74924,10.57634 20.0951,20.09504 8.4611,7.40344 6.3458,5.28817 6.3458,7.40344 7.4034,6.3458 v 2.11527 l 4.2305,2.11527 15.8646,13.74924 2.1152,3.1729 v 3.1729 l -8.461,7.40344 -12.6917,12.69161 -11.6339,9.51871 -20.0951,14.80687 -16.9221,10.57634 -11.63404,7.40344 -20.09504,10.57634 -24.32558,11.63397 -13.74924,5.28817 -14.80688,5.28817 -21.15268,6.34581 -30.67139,6.3458 -12.6916,2.11527 -22.21032,2.11527 h -67.68857 l -22.21032,-2.11527 -1.05763,-1.05763 -23.26795,-3.17291 -33.84429,-8.46107 -7.40344,-3.1729 -9.5187,-3.1729 -12.69161,-5.28817 -10.57634,-4.23054 -25.38322,-12.69161 -14.80687,-9.5187 -17.97978,-12.69161 -10.57634,-8.46107 -8.46107,-7.40344 -10.57634,-9.51871 -19.03741,-19.03741 -9.51871,-11.63397 -12.69161,-15.86451 -16.92214,-25.38322 -15.86451,-30.67138 -9.51871,-20.09505 -10.57634,-31.72902 -5.28817,-20.09505 -4.23053,-21.15268 -3.17291,-23.26794 v -68.74621 l 4.23054,-28.55612 10.57634,-41.24773 6.3458,-14.80687 5.28817,-13.74925 10.57634,-21.15268 9.51871,-14.80687 11.63397,-16.92215 10.57634,-13.74924 7.40344,-8.46107 8.46107,-9.51871 7.40344,-8.46107 14.80688,-12.69161 8.46107,-7.40343 11.63397,-9.51871 8.46108,-6.3458 15.86451,-10.57634 12.6916,-7.40344 10.57634,-6.34581 35.95956,-17.97977 10.57634,-3.17291 11.63397,-5.28817 17.97978,-5.28817 29.61375,-6.3458 12.69161,-2.11527 16.92215,-2.11527 z"
     fill="#010000"
     id="path1"
     style="fill:#ffffff;fill-opacity:1;stroke-width:1" />
  <path
     d="m 359.41361,87.17067 h 156.52983 l -5.28817,5.28817 -11.63397,9.51871 -23.26795,23.26794 -10.57634,13.74925 h -2.11527 l -2.11527,4.23053 -25.38321,38.07483 -12.69161,24.32558 -9.51871,22.21031 -3.1729,3.1729 -79.32255,1.05764 -214.6997,1.05763 -5.28817,1.05764 H -0.18194988 V 131.5913 L 5.1062201,121.01496 16.740194,108.32335 27.316534,99.86228 38.950508,93.51647 42.12341,92.45884 60.103188,91.40121 64.333724,90.34357 308.64718,88.2283 Z"
     fill="#E12D8C"
     id="path2"
     style="fill:#18d26e;fill-opacity:1;stroke-width:1" />
  <path
     d="m 398.54606,620.21819 4.23054,2.11527 7.40343,24.32558 11.63398,27.49848 8.46107,15.86451 15.86451,23.26795 12.69161,14.80688 7.40344,8.46107 15.86451,15.86451 7.40343,6.3458 v 2.11527 L 200.33899,760.21723 30.489428,759.82588 17.79782,754.53771 4.0485781,745.019 -0.18195788,738.6732 -1.2395919,733.38503 v -53.93934 l 1.05763402,-57.11223 1.057634,-1.05764 H 249.41967 Z"
     fill="#e12d8c"
     id="path3"
     sodipodi:nodetypes="cccccccccccccccccccccc"
     style="fill:#18d26e;fill-opacity:1;stroke-width:1" />
  <path
     d="M 5.1062241,354.75207 H 358.35598 v 144.89586 l -3.1729,1.05763 H 6.1638581 l -1.057634,-1.05763 z"
     fill="#E12D8C"
     id="path4"
     style="fill:#18d26e;fill-opacity:1;stroke-width:1"
     sodipodi:nodetypes="ccccccc" />
</svg>
